<svg xmlns="http://www.w3.org/2000/svg" width="150" height="150" viewBox="0 0 150 150"><g fill="#ffffff" fill-opacity="0.1"><circle r="7" cx="15" cy="15"/><circle r="7" cx="45" cy="15"/><circle r="7" cx="75" cy="15"/><circle r="7" cx="105" cy="15"/><circle r="7" cx="135" cy="15"/><circle r="7" cx="15" cy="45"/><circle r="7" cx="45" cy="45"/><circle r="7" cx="75" cy="45"/><circle r="7" cx="105" cy="45"/><circle r="7" cx="135" cy="45"/><circle r="7" cx="15" cy="75"/><circle r="7" cx="45" cy="75"/><circle r="7" cx="75" cy="75"/><circle r="7" cx="105" cy="75"/><circle r="7" cx="135" cy="75"/><circle r="7" cx="15" cy="105"/><circle r="7" cx="45" cy="105"/><circle r="7" cx="75" cy="105"/><circle r="7" cx="105" cy="105"/><circle r="7" cx="135" cy="105"/><circle r="7" cx="15" cy="135"/><circle r="7" cx="45" cy="135"/><circle r="7" cx="75" cy="135"/><circle r="7" cx="105" cy="135"/><circle r="7" cx="135" cy="135"/></g></svg>